<svg xmlns="http://www.w3.org/2000/svg" xmlns:xlink="http://www.w3.org/1999/xlink" viewBox="55 240 650 165" preserveAspectRatio="xMidYMid meet" version="1.0"><g fill="#ffffff" fill-opacity="1"><g transform="translate(77.006323, 369.585464)"><g><path d="M 87.765625 -27.734375 C 87.765625 -18.304688 84.269531 -11.097656 77.28125 -6.109375 C 70.300781 -1.128906 60.054688 1.359375 46.546875 1.359375 C 34.210938 1.359375 24.539062 -0.820312 17.53125 -5.1875 C 10.53125 -9.5625 6.03125 -16.1875 4.03125 -25.0625 L 23.484375 -28.28125 C 24.796875 -23.175781 27.363281 -19.472656 31.1875 -17.171875 C 35.007812 -14.878906 40.3125 -13.734375 47.09375 -13.734375 C 61.15625 -13.734375 68.1875 -18.015625 68.1875 -26.578125 C 68.1875 -29.304688 67.378906 -31.554688 65.765625 -33.328125 C 64.148438 -35.109375 61.875 -36.585938 58.9375 -37.765625 C 56 -38.953125 50.367188 -40.390625 42.046875 -42.078125 C 34.859375 -43.765625 29.851562 -45.117188 27.03125 -46.140625 C 24.207031 -47.160156 21.65625 -48.363281 19.375 -49.75 C 17.101562 -51.144531 15.171875 -52.820312 13.578125 -54.78125 C 11.984375 -56.738281 10.742188 -59.035156 9.859375 -61.671875 C 8.972656 -64.316406 8.53125 -67.347656 8.53125 -70.765625 C 8.53125 -79.460938 11.796875 -86.117188 18.328125 -90.734375 C 24.859375 -95.359375 34.359375 -97.671875 46.828125 -97.671875 C 58.742188 -97.671875 67.691406 -95.800781 73.671875 -92.0625 C 79.660156 -88.332031 83.519531 -82.164062 85.25 -73.5625 L 65.734375 -70.90625 C 64.722656 -75.050781 62.679688 -78.171875 59.609375 -80.265625 C 56.546875 -82.359375 52.144531 -83.40625 46.40625 -83.40625 C 34.21875 -83.40625 28.125 -79.578125 28.125 -71.921875 C 28.125 -69.421875 28.769531 -67.375 30.0625 -65.78125 C 31.363281 -64.1875 33.285156 -62.832031 35.828125 -61.71875 C 38.378906 -60.601562 43.546875 -59.203125 51.328125 -57.515625 C 60.566406 -55.554688 67.175781 -53.742188 71.15625 -52.078125 C 75.132812 -50.421875 78.285156 -48.488281 80.609375 -46.28125 C 82.929688 -44.070312 84.703125 -41.429688 85.921875 -38.359375 C 87.148438 -35.285156 87.765625 -31.742188 87.765625 -27.734375 Z M 87.765625 -27.734375 "/></g></g></g><g fill="#ffffff" fill-opacity="1"><g transform="translate(170.232485, 369.585464)"><g><path d="M 79.65625 -37.296875 C 79.65625 -24.953125 77.1875 -15.421875 72.25 -8.703125 C 67.3125 -1.992188 60.335938 1.359375 51.328125 1.359375 C 46.140625 1.359375 41.625 0.234375 37.78125 -2.015625 C 33.9375 -4.265625 30.988281 -7.507812 28.9375 -11.75 L 28.53125 -11.75 C 28.800781 -10.382812 28.9375 -6.238281 28.9375 0.6875 L 28.9375 29.03125 L 9.765625 29.03125 L 9.765625 -56.90625 C 9.765625 -63.863281 9.582031 -69.53125 9.21875 -73.90625 L 27.84375 -73.90625 C 28.070312 -73.082031 28.265625 -71.460938 28.421875 -69.046875 C 28.585938 -66.640625 28.671875 -64.253906 28.671875 -61.890625 L 28.9375 -61.890625 C 33.257812 -70.953125 41.128906 -75.484375 52.546875 -75.484375 C 61.148438 -75.484375 67.816406 -72.164062 72.546875 -65.53125 C 77.285156 -58.90625 79.65625 -49.492188 79.65625 -37.296875 Z M 59.65625 -37.296875 C 59.65625 -53.867188 54.582031 -62.15625 44.4375 -62.15625 C 39.332031 -62.15625 35.425781 -59.921875 32.71875 -55.453125 C 30.019531 -50.992188 28.671875 -44.757812 28.671875 -36.75 C 28.671875 -28.78125 30.019531 -22.617188 32.71875 -18.265625 C 35.425781 -13.921875 39.285156 -11.75 44.296875 -11.75 C 54.535156 -11.75 59.65625 -20.265625 59.65625 -37.296875 Z M 59.65625 -37.296875 "/></g></g></g><g fill="#ffffff" fill-opacity="1"><g transform="translate(255.610184, 369.585464)"><g><path d="M 79.921875 -37.015625 C 79.921875 -25.046875 76.597656 -15.65625 69.953125 -8.84375 C 63.316406 -2.039062 54.128906 1.359375 42.390625 1.359375 C 30.867188 1.359375 21.832031 -2.050781 15.28125 -8.875 C 8.726562 -15.707031 5.453125 -25.085938 5.453125 -37.015625 C 5.453125 -48.898438 8.726562 -58.242188 15.28125 -65.046875 C 21.832031 -71.859375 31.003906 -75.265625 42.796875 -75.265625 C 54.847656 -75.265625 64.046875 -71.972656 70.390625 -65.390625 C 76.742188 -58.816406 79.921875 -49.359375 79.921875 -37.015625 Z M 59.859375 -37.015625 C 59.859375 -45.804688 58.421875 -52.179688 55.546875 -56.140625 C 52.679688 -60.109375 48.519531 -62.09375 43.0625 -62.09375 C 31.414062 -62.09375 25.59375 -53.734375 25.59375 -37.015625 C 25.59375 -28.773438 27.015625 -22.503906 29.859375 -18.203125 C 32.703125 -13.898438 36.8125 -11.75 42.1875 -11.75 C 53.96875 -11.75 59.859375 -20.171875 59.859375 -37.015625 Z M 59.859375 -37.015625 "/></g></g></g><g fill="#ffffff" fill-opacity="1"><g transform="translate(340.987894, 369.585464)"><g><path d="M 57.609375 0 L 57.609375 -41.46875 C 57.609375 -54.4375 53.21875 -60.921875 44.4375 -60.921875 C 39.789062 -60.921875 36.046875 -58.925781 33.203125 -54.9375 C 30.359375 -50.957031 28.9375 -45.851562 28.9375 -39.625 L 28.9375 0 L 9.765625 0 L 9.765625 -57.375 C 9.765625 -61.332031 9.707031 -64.578125 9.59375 -67.109375 C 9.476562 -69.640625 9.351562 -71.90625 9.21875 -73.90625 L 27.5 -73.90625 C 27.632812 -73.039062 27.816406 -70.726562 28.046875 -66.96875 C 28.273438 -63.21875 28.390625 -60.632812 28.390625 -59.21875 L 28.671875 -59.21875 C 31.265625 -64.863281 34.515625 -68.960938 38.421875 -71.515625 C 42.335938 -74.066406 47.003906 -75.34375 52.421875 -75.34375 C 60.242188 -75.34375 66.25 -72.925781 70.4375 -68.09375 C 74.625 -63.269531 76.71875 -56.210938 76.71875 -46.921875 L 76.71875 0 Z M 57.609375 0 "/></g></g></g><g fill="#ffffff" fill-opacity="1"><g transform="translate(426.365582, 369.585464)"><g><path d="M 28.671875 1.234375 C 23.023438 1.234375 18.675781 -0.300781 15.625 -3.375 C 12.582031 -6.445312 11.0625 -11.101562 11.0625 -17.34375 L 11.0625 -60.921875 L 1.703125 -60.921875 L 1.703125 -73.90625 L 12.015625 -73.90625 L 18.015625 -91.25 L 30.03125 -91.25 L 30.03125 -73.90625 L 44.015625 -73.90625 L 44.015625 -60.921875 L 30.03125 -60.921875 L 30.03125 -22.546875 C 30.03125 -18.941406 30.710938 -16.285156 32.078125 -14.578125 C 33.441406 -12.867188 35.554688 -12.015625 38.421875 -12.015625 C 39.921875 -12.015625 42.0625 -12.335938 44.84375 -12.984375 L 44.84375 -1.09375 C 40.113281 0.457031 34.722656 1.234375 28.671875 1.234375 Z M 28.671875 1.234375 "/></g></g></g><g fill="#ffffff" fill-opacity="1"><g transform="translate(472.910404, 369.585464)"><g><path d="M 19.3125 29.03125 C 14.71875 29.03125 10.691406 28.734375 7.234375 28.140625 L 7.234375 14.484375 C 9.648438 14.847656 11.859375 15.03125 13.859375 15.03125 C 16.585938 15.03125 18.847656 14.597656 20.640625 13.734375 C 22.441406 12.867188 24.054688 11.429688 25.484375 9.421875 C 26.921875 7.421875 28.523438 4.03125 30.296875 -0.75 L 1.09375 -73.90625 L 21.359375 -73.90625 L 32.96875 -39.28125 C 34.789062 -34.3125 37.085938 -26.707031 39.859375 -16.46875 L 41.5625 -22.953125 L 46 -39 L 56.921875 -73.90625 L 76.984375 -73.90625 L 47.78125 3.890625 C 43.863281 13.359375 39.800781 19.914062 35.59375 23.5625 C 31.382812 27.207031 25.957031 29.03125 19.3125 29.03125 Z M 19.3125 29.03125 "/></g></g></g><g fill="#ffffff" fill-opacity="1"><g transform="translate(550.644388, 369.585464)"><g><path d="M 55.90625 0 L 38.703125 -26.78125 L 21.359375 0 L 0.953125 0 L 27.984375 -38.1875 L 2.25 -73.90625 L 22.9375 -73.90625 L 38.703125 -49.734375 L 54.390625 -73.90625 L 75.21875 -73.90625 L 49.484375 -38.390625 L 76.71875 0 Z M 55.90625 0 "/></g></g></g><g fill="#a8e10c" fill-opacity="1"><g transform="translate(624.65269, 315.484433)"><g><path d="M 42.1875 -69.53125 C 47.1875 -69.53125 52.15625 -68.207031 57.09375 -65.5625 C 62.03125 -62.925781 65.796875 -59.125 68.390625 -54.15625 C 70.984375 -49.195312 72.28125 -44.304688 72.28125 -39.484375 C 72.28125 -31.148438 69.34375 -24.046875 63.46875 -18.171875 C 57.601562 -12.296875 50.507812 -9.359375 42.1875 -9.359375 C 33.90625 -9.359375 26.828125 -12.304688 20.953125 -18.203125 C 15.085938 -24.097656 12.15625 -31.191406 12.15625 -39.484375 C 12.15625 -44.398438 13.414062 -49.28125 15.9375 -54.125 C 18.457031 -58.976562 22.164062 -62.757812 27.0625 -65.46875 C 31.957031 -68.175781 37 -69.53125 42.1875 -69.53125 Z M 42.1875 -69.53125 "/></g></g></g></svg>
